<?xml version="1.0" standalone="no"?>
<!DOCTYPE svg PUBLIC "-//W3C//DTD SVG 20010904//EN"
 "http://www.w3.org/TR/2001/REC-SVG-20010904/DTD/svg10.dtd">
<svg version="1.0" xmlns="http://www.w3.org/2000/svg"
 width="500.000000pt" height="500.000000pt" viewBox="0 0 500.000000 500.000000"
 preserveAspectRatio="xMidYMid meet">
<metadata>
Created by potrace 1.14, written by Peter Selinger 2001-2017
</metadata>
<g transform="translate(0.000000,500.000000) scale(0.100000,-0.100000)"
fill="#000000" stroke="none">
<path d="M2391 4984 c-422 -58 -826 -252 -1122 -539 -68 -65 -95 -95 -194
-210 -58 -67 -170 -247 -225 -360 -53 -108 -132 -321 -144 -385 -2 -14 -7 -32
-10 -40 -3 -8 -7 -31 -10 -50 -3 -19 -12 -73 -20 -120 -18 -107 -18 -442 0
-560 70 -463 258 -835 585 -1160 283 -280 708 -494 1088 -546 25 -3 57 -8 71
-11 59 -13 399 -10 500 4 98 13 342 68 365 81 6 4 15 7 20 8 6 1 45 16 88 33
536 214 956 644 1149 1176 39 107 82 262 93 335 4 25 9 52 10 60 17 93 24 384
11 485 -4 28 -8 64 -10 80 -36 284 -159 607 -324 849 -327 481 -789 768 -1402
871 -80 14 -417 13 -519 -1z"/>
<path d="M414 948 c-51 -100 -108 -204 -118 -215 -11 -11 -189 -48 -256 -52
-8 -1 -22 -5 -30 -11 -12 -7 -10 -13 10 -33 14 -13 60 -60 103 -105 l79 -82
-7 -62 c-10 -97 -14 -129 -23 -185 -5 -29 -5 -53 -1 -53 5 0 65 27 135 60 69
33 130 60 135 60 5 0 65 -27 133 -60 117 -57 153 -70 143 -52 -3 4 -8 34 -11
67 -4 33 -9 74 -11 90 -2 17 -7 53 -11 81 l-6 52 93 97 c85 88 116 124 107
126 -27 7 -90 18 -134 24 -115 16 -159 30 -171 55 -49 98 -122 225 -131 228
-6 2 -18 -12 -28 -30z"/>
<path d="M1448 953 c-7 -15 -15 -30 -18 -33 -3 -3 -21 -36 -40 -75 -19 -38
-41 -75 -47 -83 -7 -7 -13 -20 -13 -28 0 -8 -8 -14 -17 -15 -18 -1 -28 -2 -93
-15 -19 -3 -48 -8 -65 -11 -16 -3 -37 -7 -45 -8 -8 -2 -24 -4 -35 -4 -11 -1
-26 -5 -34 -10 -11 -7 -9 -14 10 -34 13 -13 59 -61 103 -106 l79 -81 -6 -57
c-4 -32 -8 -71 -11 -88 -17 -96 -21 -143 -12 -152 2 -3 61 23 131 56 70 34
130 61 135 61 5 0 60 -24 122 -54 62 -29 124 -57 137 -61 21 -6 23 -5 18 16
-10 40 -26 151 -32 217 l-5 63 82 86 c46 47 91 93 101 102 9 8 17 18 17 22 0
7 -84 31 -97 27 -5 -1 -33 4 -63 10 -30 6 -71 14 -90 17 -41 6 -47 14 -122
154 -31 58 -61 107 -67 109 -6 2 -16 -9 -23 -25z"/>
<path d="M2481 958 c-8 -13 -14 -24 -13 -25 0 -1 -19 -37 -44 -80 -24 -43 -50
-90 -56 -104 -10 -22 -21 -28 -57 -34 -26 -3 -53 -8 -61 -10 -8 -2 -45 -8 -82
-14 -125 -21 -124 -16 -28 -116 47 -49 93 -97 103 -107 16 -17 18 -30 12 -91
-4 -40 -9 -75 -11 -78 -2 -3 -6 -35 -10 -70 -3 -35 -8 -67 -11 -71 -10 -17 23
-5 142 52 69 33 130 60 135 60 6 0 67 -27 136 -61 95 -46 128 -58 134 -48 5 6
7 17 5 23 -5 15 -12 62 -26 173 l-12 91 84 88 c46 48 92 94 102 103 9 8 17 18
17 22 0 9 -91 31 -98 25 -3 -3 -11 -1 -19 5 -7 6 -13 9 -13 6 0 -2 -30 2 -66
9 -36 8 -69 12 -74 9 -12 -8 -31 19 -97 144 -33 63 -65 117 -70 118 -4 2 -14
-7 -22 -19z"/>
<path d="M3469 883 c-30 -54 -53 -101 -51 -105 1 -5 -2 -8 -6 -8 -5 0 -13 -10
-19 -23 -11 -23 -17 -25 -218 -62 -11 -2 -29 -4 -40 -4 -11 -1 -27 -5 -35 -11
-13 -8 39 -69 173 -200 16 -16 18 -27 12 -82 -4 -34 -9 -72 -10 -83 -2 -19
-14 -100 -21 -138 -1 -9 2 -17 7 -17 6 0 66 27 135 60 68 33 129 60 134 60 6
0 67 -27 136 -61 69 -33 128 -58 130 -56 10 10 5 69 -16 186 -18 102 -17 107
63 189 39 41 84 86 100 100 15 14 27 29 27 33 0 6 -32 15 -85 25 -5 1 -12 3
-15 4 -3 1 -14 3 -25 4 -84 10 -175 32 -175 42 0 7 -3 14 -7 16 -5 2 -34 52
-65 113 -31 60 -61 111 -66 113 -6 2 -34 -41 -63 -95z"/>
<path d="M4536 953 c-70 -134 -103 -193 -116 -211 -12 -18 -38 -26 -147 -44
-73 -12 -138 -25 -144 -29 -9 -5 -3 -16 17 -37 16 -16 62 -64 102 -106 l74
-77 -7 -62 c-4 -34 -9 -71 -11 -82 -2 -11 -7 -45 -10 -75 -3 -30 -8 -58 -10
-62 -16 -25 32 -11 141 42 90 44 132 59 148 54 12 -3 73 -31 135 -61 61 -30
116 -52 121 -49 5 3 5 22 1 43 -8 36 -13 73 -27 201 l-5 52 73 76 c116 120
129 134 129 138 0 5 -85 25 -125 30 -16 2 -61 9 -98 16 -77 14 -68 5 -150 160
-31 57 -60 106 -66 108 -5 2 -17 -9 -25 -25z"/>
</g>
</svg>
